<?xml version="1.0" standalone="no"?>
<!DOCTYPE svg PUBLIC "-//W3C//DTD SVG 20010904//EN"
 "http://www.w3.org/TR/2001/REC-SVG-20010904/DTD/svg10.dtd">
<svg version="1.0" xmlns="http://www.w3.org/2000/svg"
 width="500.000000pt" height="500.000000pt" viewBox="0 0 500.000000 500.000000"
 preserveAspectRatio="xMidYMid meet">
<metadata>
Created by potrace 1.11, written by Peter Selinger 2001-2013
</metadata>
<g transform="translate(0.000000,500.000000) scale(0.100000,-0.100000)"
fill="#000000" stroke="none">
<path d="M827 4984 c-399 -72 -711 -371 -803 -769 -18 -76 -19 -156 -19 -1720
l0 -1640 22 -88 c96 -374 383 -656 758 -743 76 -18 156 -19 1715 -19 1559 0
1639 1 1715 19 375 87 662 369 758 743 l22 88 0 1645 0 1645 -22 88 c-101 396
-409 682 -808 752 -126 22 -3216 21 -3338 -1z m1941 -935 c222 -24 445 -93
625 -195 118 -67 243 -160 292 -217 72 -84 84 -216 29 -317 -33 -62 -70 -95
-142 -128 -48 -21 -64 -24 -140 -20 -95 5 -125 16 -207 78 -226 172 -477 245
-749 220 -425 -41 -771 -318 -893 -717 -24 -81 -27 -102 -27 -258 0 -156 3
-177 27 -258 123 -400 468 -677 896 -717 260 -24 505 43 713 194 109 80 156
99 248 99 97 0 163 -28 223 -92 115 -123 98 -310 -38 -426 -366 -312 -915
-436 -1434 -323 -530 114 -1007 536 -1175 1038 -55 164 -70 269 -70 485 0 216
15 321 70 485 169 505 647 926 1180 1040 181 38 390 49 572 29z"/>
</g>
</svg>
