<?xml version="1.0" encoding="iso-8859-1"?>
<!-- Generator: Adobe Illustrator 22.1.0, SVG Export Plug-In . SVG Version: 6.00 Build 0)  -->
<svg version="1.1" id="Ebene_1" xmlns="http://www.w3.org/2000/svg" xmlns:xlink="http://www.w3.org/1999/xlink" x="0px" y="0px"
	 viewBox="0 0 215.171 68.854" style="enable-background:new 0 0 215.171 68.854;" xml:space="preserve">
<g>
	<path style="fill:#FFFFFF;" d="M36.751,55.213c1.291,0,2.359,0.424,3.206,1.27c0.846,0.847,1.269,1.915,1.269,3.206
		c0,1.263-0.473,2.366-1.42,3.313c-4.447,3.902-9.683,5.853-15.708,5.853c-6.656,0-12.336-2.353-17.042-7.058
		C2.352,57.092,0,51.412,0,44.755C0,38.1,2.352,32.419,7.058,27.714c4.705-4.705,10.385-7.058,17.042-7.058
		c6.053,0,11.289,1.952,15.708,5.853c1.033,0.919,1.549,2.052,1.549,3.4c0,1.291-0.424,2.367-1.27,3.228
		c-0.847,0.861-1.915,1.291-3.206,1.291c-1.091,0-2.065-0.344-2.926-1.033c-1.463-1.233-2.999-2.166-4.604-2.797
		c-1.607-0.631-3.357-0.947-5.25-0.947c-2.094,0-4.06,0.395-5.896,1.184c-1.836,0.79-3.443,1.865-4.82,3.228
		c-1.377,1.363-2.46,2.962-3.249,4.798c-0.79,1.836-1.184,3.802-1.184,5.896c0,2.095,0.394,4.06,1.184,5.896
		c0.789,1.836,1.872,3.436,3.249,4.798c1.377,1.363,2.983,2.439,4.82,3.228c1.835,0.79,3.801,1.184,5.896,1.184
		c1.894,0,3.643-0.308,5.25-0.925c1.606-0.617,3.126-1.542,4.562-2.776C34.714,55.557,35.661,55.241,36.751,55.213z"/>
	<path style="fill:#FFFFFF;" d="M96.482,44.755c0,6.713-2.353,12.394-7.058,17.042c-4.762,4.705-10.443,7.058-17.041,7.058
		c-6.656,0-12.337-2.353-17.042-7.058c-4.706-4.705-7.058-10.385-7.058-17.042c0-6.655,2.352-12.336,7.058-17.042
		c4.705-4.705,10.385-7.058,17.042-7.058c6.598,0,12.279,2.353,17.041,7.058c2.353,2.353,4.11,4.949,5.272,7.789
		C95.858,38.343,96.454,41.428,96.482,44.755z M72.384,29.65c-2.124,0-4.103,0.402-5.939,1.205
		c-1.836,0.804-3.429,1.887-4.777,3.249c-1.349,1.363-2.417,2.963-3.206,4.798c-0.789,1.836-1.183,3.787-1.183,5.853
		c0,2.066,0.394,4.017,1.183,5.853c0.789,1.836,1.857,3.436,3.206,4.798c1.348,1.363,2.94,2.446,4.777,3.249
		c1.836,0.804,3.815,1.205,5.939,1.205c2.094,0,4.059-0.401,5.896-1.205c1.835-0.803,3.435-1.894,4.798-3.271
		c1.362-1.377,2.438-2.976,3.228-4.798c0.789-1.821,1.183-3.765,1.183-5.831c0-2.065-0.395-4.009-1.183-5.831
		c-0.79-1.821-1.865-3.421-3.228-4.798c-1.363-1.377-2.963-2.467-4.798-3.271C76.443,30.053,74.478,29.65,72.384,29.65z"/>
	<path style="fill:#FFFFFF;" d="M140.032,55.213c1.291,0,2.359,0.424,3.207,1.27c0.846,0.847,1.27,1.915,1.27,3.206
		c0,1.263-0.475,2.366-1.42,3.313c-4.447,3.902-9.684,5.853-15.707,5.853c-6.656,0-12.338-2.353-17.042-7.058
		c-4.706-4.705-7.058-10.385-7.058-17.042c0-6.655,2.352-12.336,7.058-17.042c4.705-4.705,10.386-7.058,17.042-7.058
		c6.053,0,11.289,1.952,15.707,5.853c1.033,0.919,1.549,2.052,1.549,3.4c0,1.291-0.424,2.367-1.27,3.228s-1.916,1.291-3.207,1.291
		c-1.09,0-2.064-0.344-2.926-1.033c-1.463-1.233-2.998-2.166-4.604-2.797c-1.607-0.631-3.357-0.947-5.25-0.947
		c-2.096,0-4.061,0.395-5.896,1.184c-1.836,0.79-3.443,1.865-4.82,3.228c-1.377,1.363-2.46,2.962-3.249,4.798
		c-0.79,1.836-1.184,3.802-1.184,5.896c0,2.095,0.394,4.06,1.184,5.896c0.789,1.836,1.872,3.436,3.249,4.798
		c1.377,1.363,2.984,2.439,4.82,3.228c1.836,0.79,3.801,1.184,5.896,1.184c1.893,0,3.643-0.308,5.25-0.925
		c1.605-0.617,3.127-1.542,4.561-2.776C137.995,55.557,138.942,55.241,140.032,55.213z"/>
	<path style="fill:#FFFFFF;" d="M199.764,44.755c0,6.713-2.353,12.394-7.058,17.042c-4.763,4.705-10.443,7.058-17.041,7.058
		c-6.656,0-12.337-2.353-17.042-7.058s-7.058-10.385-7.058-17.042c0-6.655,2.353-12.336,7.058-17.042
		c4.705-4.705,10.386-7.058,17.042-7.058c6.598,0,12.278,2.353,17.041,7.058c2.353,2.353,4.11,4.949,5.271,7.789
		C199.14,38.343,199.735,41.428,199.764,44.755z M175.665,29.65c-2.124,0-4.104,0.402-5.938,1.205
		c-1.837,0.804-3.429,1.887-4.777,3.249c-1.349,1.363-2.417,2.963-3.206,4.798c-0.789,1.836-1.184,3.787-1.184,5.853
		c0,2.066,0.395,4.017,1.184,5.853c0.789,1.836,1.857,3.436,3.206,4.798c1.349,1.363,2.94,2.446,4.777,3.249
		c1.835,0.804,3.814,1.205,5.938,1.205c2.094,0,4.06-0.401,5.896-1.205c1.836-0.803,3.436-1.894,4.798-3.271
		s2.438-2.976,3.228-4.798c0.789-1.821,1.184-3.765,1.184-5.831c0-2.065-0.395-4.009-1.184-5.831
		c-0.789-1.821-1.865-3.421-3.228-4.798s-2.962-2.467-4.798-3.271C179.725,30.053,177.759,29.65,175.665,29.65z"/>
	<path style="fill:#FFFFFF;" d="M213.901,1.312C213.055,0.438,211.986,0,210.695,0s-2.36,0.438-3.206,1.312
		c-0.847,0.875-1.27,1.944-1.27,3.206v12.749v34.319v12.749c0,1.262,0.424,2.331,1.27,3.206c0.847,0.875,1.915,1.312,3.206,1.312
		s2.36-0.438,3.206-1.312c0.847-0.875,1.27-1.944,1.27-3.206V51.587V17.268V4.519C215.171,3.256,214.747,2.188,213.901,1.312z"/>
</g>
</svg>
